<svg width="187" height="188" viewBox="0 0 187 188" fill="none" xmlns="http://www.w3.org/2000/svg">
<path d="M185.101 98.1467L160.873 122.337V154.429C160.873 156.165 160.184 157.83 158.956 159.058C157.729 160.285 156.064 160.975 154.328 160.975H122.264L98.0732 185.175C96.8472 186.391 95.1902 187.074 93.4633 187.074C91.7363 187.074 90.0793 186.391 88.8533 185.175L64.6628 160.947H32.5708C30.8348 160.947 29.1699 160.257 27.9424 159.03C26.7148 157.802 26.0252 156.137 26.0252 154.401V122.272L1.82529 97.2116C0.627059 95.9644 -0.0288138 94.2935 0.000971916 92.5642C0.0307576 90.8349 0.74378 89.1877 1.98426 87.9824L26.0532 64.6801V32.6442C26.0532 30.9083 26.7429 29.2434 27.9704 28.0158C29.1979 26.7883 30.8628 26.0987 32.5988 26.0987H64.6628L88.8533 1.89876C90.0793 0.682485 91.7363 0 93.4633 0C95.1902 0 96.8472 0.682485 98.0732 1.89876L122.264 26.1267H154.356C156.092 26.1267 157.757 26.8164 158.984 28.0439C160.212 29.2714 160.901 30.9363 160.901 32.6723V64.7363L185.101 88.9268C186.318 90.1528 187 91.8098 187 93.5368C187 95.2637 186.318 96.9207 185.101 98.1467Z" fill="#BF9B79"/>
<path d="M143.481 93.5336C143.48 94.4751 143.275 95.4053 142.881 96.2606C142.488 97.1159 141.914 97.8761 141.2 98.4895L131.306 106.971V124.849C131.306 126.585 130.617 128.25 129.389 129.478C128.162 130.705 126.497 131.395 124.761 131.395H106.901L98.4196 141.288C97.8051 142 97.0444 142.572 96.1892 142.963C95.3339 143.355 94.4043 143.558 93.4637 143.558C92.523 143.558 91.5934 143.355 90.7382 142.963C89.883 142.572 89.1222 142 88.5078 141.288L80.0266 131.395H62.1478C60.4118 131.395 58.7469 130.705 57.5194 129.478C56.2919 128.25 55.6023 126.585 55.6023 124.849V106.971L45.7746 98.4895C45.0624 97.875 44.491 97.1143 44.0993 96.259C43.7076 95.4038 43.5049 94.4742 43.5049 93.5336C43.5049 92.5929 43.7076 91.6633 44.0993 90.8081C44.491 89.9529 45.0624 89.1921 45.7746 88.5776L55.6677 80.0965V62.2177C55.6677 60.4817 56.3573 58.8168 57.5849 57.5893C58.8124 56.3617 60.4773 55.6721 62.2133 55.6721H80.092L88.5078 45.8444C89.1399 45.1611 89.9064 44.6159 90.7593 44.2431C91.6121 43.8702 92.5329 43.6777 93.4637 43.6777C94.3945 43.6777 95.3153 43.8702 96.1681 44.2431C97.021 44.6159 97.7875 45.1611 98.4196 45.8444L106.901 55.7376H124.78C126.516 55.7376 128.18 56.4272 129.408 57.6547C130.636 58.8823 131.325 60.5472 131.325 62.2831V80.1619L141.218 88.6431C141.921 89.251 142.486 90.0015 142.876 90.8447C143.267 91.6879 143.473 92.6045 143.481 93.5336Z" fill="#BF9B79"/>
</svg>
