<svg width="93" height="93" viewBox="0 0 93 93" fill="none" xmlns="http://www.w3.org/2000/svg">
<path d="M65.8211 92.9864H27.1733C22.8027 93.1488 18.5446 91.5798 15.3242 88.6206C12.1038 85.6613 10.1813 81.5507 9.97435 77.182V56.4636C9.97435 55.583 10.3242 54.7385 10.9468 54.1158C11.5695 53.4932 12.414 53.1433 13.2946 53.1433C14.1752 53.1433 15.0197 53.4932 15.6424 54.1158C16.2651 54.7385 16.6149 55.583 16.6149 56.4636V77.182C16.8189 79.7899 18.0407 82.2129 20.0163 83.9275C21.9918 85.6422 24.5626 86.5108 27.1733 86.3459H65.8211C68.4317 86.5108 71.0025 85.6422 72.9781 83.9275C74.9536 82.2129 76.1754 79.7899 76.3795 77.182V56.4636C76.3795 55.583 76.7293 54.7385 77.3519 54.1158C77.9746 53.4932 78.8191 53.1433 79.6997 53.1433C80.5803 53.1433 81.4248 53.4932 82.0475 54.1158C82.6702 54.7385 83.02 55.583 83.02 56.4636V77.182C82.8131 81.5507 80.8905 85.6613 77.6701 88.6206C74.4497 91.5798 70.1916 93.1488 65.8211 92.9864ZM92.0179 48.8602C92.3291 48.5516 92.5761 48.1843 92.7447 47.7797C92.9132 47.3751 93 46.9411 93 46.5028C93 46.0645 92.9132 45.6305 92.7447 45.2259C92.5761 44.8213 92.3291 44.4541 92.0179 44.1455L48.8545 0.982126C48.5459 0.670924 48.1787 0.423916 47.7741 0.255351C47.3695 0.0867857 46.9355 0 46.4972 0C46.0589 0 45.6249 0.0867857 45.2203 0.255351C44.8157 0.423916 44.4484 0.670924 44.1398 0.982126L0.976459 44.1455C0.351243 44.7707 0 45.6186 0 46.5028C0 47.387 0.351243 48.235 0.976459 48.8602C1.60168 49.4854 2.44965 49.8367 3.33384 49.8367C4.21803 49.8367 5.06601 49.4854 5.69122 48.8602L46.4972 8.02107L87.3031 48.8602C87.6118 49.1714 87.979 49.4184 88.3836 49.587C88.7882 49.7556 89.2222 49.8423 89.6605 49.8423C90.0988 49.8423 90.5328 49.7556 90.9374 49.587C91.342 49.4184 91.7092 49.1714 92.0179 48.8602Z" fill="#593E2D"/>
</svg>
