<svg width="255" height="255" viewBox="0 0 255 255" fill="none" xmlns="http://www.w3.org/2000/svg">
<path d="M127.5 255L125.916 252.991C122.277 248.364 117.426 244.857 111.898 242.847L104.474 240.154C95.9936 237.078 90.0004 229.495 88.7984 220.717C81.8291 225.589 72.6186 226.496 64.7461 222.809L57.5941 219.465C52.2584 216.971 46.3516 216.017 40.5078 216.718L37.9678 217.02L38.2699 214.48C38.9672 208.634 38.0176 202.722 35.524 197.388L32.1772 190.234C28.5049 182.382 29.3947 173.208 34.2225 166.244C25.4635 165.028 17.9098 159.036 14.8385 150.57L12.149 143.144C10.1402 137.607 6.63731 132.758 2.00879 129.121L0 127.54L2.00879 125.956C6.63399 122.319 10.1402 117.463 12.149 111.933L14.8385 104.506C17.9164 96.0236 25.4934 90.0285 34.2723 88.8295C29.4014 81.8547 28.4949 72.6479 32.1772 64.7663L35.524 57.6121C38.0176 52.2781 38.9672 46.3694 38.2699 40.5205L37.9678 37.9796L40.5078 38.2819C46.3516 38.9827 52.2584 38.0295 57.5941 35.5351L64.7461 32.1905C72.6252 28.5038 81.8291 29.4106 88.7984 34.283C90.0004 25.5046 95.9936 17.922 104.474 14.8498L111.898 12.1561C117.433 10.1467 122.277 6.64602 125.916 2.01606L127.5 0L129.084 2.00942C132.723 6.63606 137.574 10.1434 143.102 12.1528L150.526 14.8464C159.006 17.922 165 25.5047 166.202 34.2797C173.171 29.4072 182.381 28.5005 190.254 32.1839L197.406 35.5285C202.742 38.0261 208.648 38.976 214.492 38.2786L217.032 37.973L216.73 40.5138C216.033 46.3594 216.982 52.2714 219.476 57.6055L222.823 64.763C226.505 72.6413 225.599 81.848 220.728 88.8229C229.507 90.0219 237.084 96.0202 240.162 104.503L242.851 111.926C244.86 117.463 248.363 122.312 252.991 125.952L255 127.537L252.991 129.121C248.366 132.758 244.86 137.614 242.851 143.144L240.162 150.57C237.094 159.036 229.537 165.028 220.778 166.244C225.605 173.208 226.495 182.382 222.823 190.234L219.476 197.388C216.982 202.722 216.033 208.631 216.73 214.48L217.032 217.02L214.492 216.718C208.648 216.017 202.742 216.971 197.406 219.465L190.254 222.809C182.375 226.496 173.171 225.589 166.202 220.717C165 229.495 159.006 237.078 150.526 240.15L143.102 242.844C137.567 244.853 132.723 248.354 129.084 252.984L127.5 255ZM92.6002 211.743V217.482C92.6002 225.908 97.9227 233.501 105.842 236.374L113.263 239.067C118.731 241.05 123.609 244.335 127.493 248.633C131.381 244.335 136.259 241.05 141.728 239.067L149.148 236.374C157.067 233.504 162.39 225.908 162.39 217.482V211.743L165.826 215.177C171.786 221.135 180.914 222.74 188.544 219.173L195.696 215.828C200.969 213.36 206.733 212.234 212.52 212.52C212.231 206.737 213.36 200.968 215.824 195.694L219.167 188.536C222.74 180.904 221.136 171.77 215.176 165.812L211.265 161.899L217.57 162.457C225.957 162.421 233.508 157.107 236.37 149.212L239.062 141.788C241.045 136.315 244.329 131.439 248.625 127.55C244.329 123.664 241.045 118.785 239.062 113.315L236.37 105.888C233.501 97.9699 225.907 92.6457 217.484 92.6457H211.746L215.183 89.2081C221.136 83.2496 222.74 74.1159 219.174 66.4835L215.83 59.326C213.367 54.0517 212.238 48.2825 212.527 42.5C206.743 42.7856 200.975 41.663 195.703 39.1953L188.547 35.8473C180.917 32.2769 171.786 33.8811 165.83 39.8429L162.396 43.2772V37.518C162.396 29.0917 157.074 21.4991 149.155 18.6261L141.731 15.9325C136.262 13.9497 131.385 10.6649 127.5 6.36703C123.615 10.6649 118.738 13.9497 113.269 15.9325L105.845 18.6261C97.926 21.4958 92.6035 29.0884 92.6035 37.518V43.2573L89.1703 39.823C83.2104 33.8645 74.0828 32.2603 66.4527 35.8274L59.2975 39.172C54.0248 41.6398 48.2574 42.7657 42.4734 42.4801C42.7623 48.2625 41.6334 54.0317 39.1697 59.306L35.8262 66.4635C32.2535 74.096 33.8572 83.2297 39.8172 89.1882L43.2537 92.6225H37.5129C29.0859 92.6225 21.499 97.9466 18.6236 105.868L15.9309 113.295C13.9486 118.765 10.6648 123.644 6.36836 127.53C10.6648 131.416 13.9486 136.295 15.9309 141.769L18.6236 149.192C21.4891 157.087 29.0328 162.401 37.4266 162.437L43.7285 161.879L39.8172 165.792C33.8639 171.75 32.2602 180.884 35.8262 188.517L39.1697 195.674C41.6334 200.948 42.7623 206.718 42.4734 212.5C48.2574 212.208 54.0248 213.34 59.2975 215.805L66.4527 219.153C74.0828 222.723 83.2137 221.119 89.1703 215.157L92.6002 211.743Z" fill="#593E2D"/>
</svg>
