<svg width="63" height="67" viewBox="0 0 63 67" fill="none" xmlns="http://www.w3.org/2000/svg">
<path d="M31.4998 46.7584C23.9166 46.7584 17.747 40.5888 17.747 33.0056C17.747 25.4225 23.9166 19.2529 31.4998 19.2529C39.0825 19.2529 45.252 25.4225 45.252 33.0056C45.252 40.5888 39.0827 46.7584 31.4998 46.7584ZM31.4998 23.3787C26.1911 23.3787 21.8728 27.6973 21.8728 33.0056C21.8728 38.314 26.1911 42.6326 31.4998 42.6326C36.8081 42.6326 41.1262 38.314 41.1262 33.0056C41.1262 27.6973 36.8081 23.3787 31.4998 23.3787Z" fill="#BF9B79"/>
<path d="M36.0738 66.0122H26.9253C24.725 66.0122 22.7805 64.45 22.3019 62.2965L21.1441 57.1473C19.2569 56.347 17.458 55.302 15.7694 54.0259L10.7551 55.6096C8.60407 56.278 6.26631 55.3649 5.18794 53.4395L0.62807 45.5541C-0.464355 43.6011 -0.0956147 41.1972 1.51098 39.6843L5.39694 36.1115C5.2791 35.0635 5.22121 34.024 5.22121 33.0061C5.22121 31.9882 5.27922 30.9488 5.39449 29.9007L1.53007 26.3446C-0.0957436 24.8151 -0.466805 22.4112 0.614017 20.4834L5.20212 12.548C6.26631 10.6443 8.60975 9.73977 10.747 10.3971L15.7694 11.9839C17.458 10.7078 19.2569 9.66267 21.1441 8.86189L22.3044 3.70777C22.7805 1.56238 24.725 0 26.9253 0H36.0738C38.2741 0 40.2186 1.56225 40.6972 3.71577L41.855 8.86498C43.7422 9.66525 45.5411 10.7102 47.2297 11.9864L52.2438 10.4026C54.4006 9.73977 56.7328 10.6473 57.811 12.5728L62.3715 20.4581C63.4633 22.4112 63.0948 24.8151 61.4881 26.3279L57.6022 29.9007C57.7174 30.9488 57.7753 31.9913 57.7753 33.0061C57.7753 34.0209 57.7174 35.0635 57.6022 36.1115L61.469 39.6651C61.4746 39.6706 61.4801 39.6762 61.4881 39.6819C62.2692 40.4157 62.7819 41.3901 62.9445 42.4494C63.1071 43.5088 62.9101 44.5921 62.3851 45.5264L57.797 53.4617C56.7328 55.3649 54.395 56.2754 52.2495 55.6096L47.2268 54.0228C45.538 55.2989 43.7392 56.344 41.8524 57.1448L40.6916 62.2989C40.2186 64.45 38.2742 66.0122 36.0738 66.0122ZM16.1903 49.6714C16.6632 49.6714 17.1282 49.8336 17.5023 50.1417C19.3919 51.696 21.4518 52.8951 23.6329 53.6984C23.9559 53.8174 24.2439 54.0154 24.4707 54.2743C24.6976 54.5332 24.8559 54.8447 24.9314 55.1806L26.3316 61.3969C26.3945 61.683 26.6449 61.8865 26.9283 61.8865H36.0764C36.3599 61.8865 36.6101 61.683 36.6706 61.4025L38.0732 55.1806C38.1487 54.8448 38.3071 54.5332 38.5338 54.2743C38.7606 54.0154 39.0486 53.8174 39.3716 53.6984C41.5498 52.8951 43.6127 51.696 45.5022 50.1417C45.7672 49.922 46.0832 49.7724 46.4211 49.7066C46.759 49.6408 47.108 49.6608 47.4361 49.765L53.4899 51.6769C53.7785 51.7675 54.0868 51.6601 54.2187 51.4235L58.8068 43.4883C58.9443 43.2434 58.8944 42.9081 58.6749 42.6935L54.0318 38.4247C53.7836 38.1965 53.5952 37.9109 53.483 37.593C53.3708 37.2751 53.3382 36.9345 53.3882 36.6011C53.5695 35.3827 53.6606 34.1726 53.6606 33.0035C53.6606 31.8341 53.5695 30.6239 53.3882 29.4056C53.3384 29.0722 53.3711 28.7317 53.4833 28.4138C53.5955 28.0959 53.7838 27.8103 54.0318 27.582L58.6854 23.3021C58.8944 23.1072 58.9443 22.7657 58.7927 22.4937L54.2323 14.6079C54.0842 14.3464 53.7705 14.2423 53.4844 14.3329L47.4389 16.2417C46.7729 16.4537 46.0472 16.3107 45.5053 15.865C43.6157 14.3107 41.5554 13.1116 39.3741 12.3083C39.0512 12.1894 38.7632 11.9914 38.5365 11.7325C38.3097 11.4736 38.1515 11.162 38.0762 10.8261L36.676 4.60977C36.6072 4.32922 36.3568 4.12576 36.0738 4.12576H26.9253C26.6423 4.12576 26.3919 4.32922 26.3314 4.60977L24.9284 10.8317C24.8527 11.1673 24.6943 11.4787 24.4676 11.7375C24.2409 11.9964 23.9532 12.1945 23.6305 12.3139C21.4518 13.1171 19.389 14.3163 17.5023 15.8705C16.9604 16.3162 16.2286 16.4563 15.5689 16.2473L9.51471 14.3354C9.23171 14.2477 8.91789 14.3521 8.78599 14.5887L4.19789 22.521C4.06032 22.7688 4.11021 23.1097 4.33842 23.3242L8.97578 27.585C9.22396 27.8132 9.4124 28.0988 9.52461 28.4167C9.63682 28.7347 9.66936 29.0753 9.6194 29.4087C9.43761 30.627 9.34697 31.8372 9.34697 33.0061C9.34697 34.175 9.43761 35.3853 9.6194 36.6035C9.72125 37.2804 9.47886 37.9625 8.97578 38.4272L4.32179 42.7071C4.11266 42.9025 4.06341 43.2434 4.21439 43.516L8.77491 51.4014C8.92034 51.6627 9.23416 51.7644 9.5227 51.6769L15.5689 49.7674C15.7723 49.7017 15.9815 49.6714 16.1903 49.6714Z" fill="#BF9B79"/>
</svg>
