<svg width="68" height="73" viewBox="0 0 68 73" fill="none" xmlns="http://www.w3.org/2000/svg">
<path d="M1.17241 72.6904C0.468966 72.6904 0 72.2215 0 71.518V69.1732C0 64.4836 2.69655 59.9111 7.50345 56.3939C7.97241 56.0422 8.79311 56.1594 9.14483 56.6284C9.49655 57.0973 9.37931 57.918 8.91035 58.2698C3.51724 62.1387 2.34483 66.3594 2.34483 69.1732V71.518C2.34483 72.2215 1.87586 72.6904 1.17241 72.6904ZM24.269 20.518C23.9172 20.518 23.5655 20.2836 23.331 20.0491C22.9793 19.4629 23.0966 18.7594 23.6828 18.4077C26.731 16.2974 30.2483 15.2422 34 15.2422C37.7517 15.2422 41.269 16.2974 44.3172 18.4077C44.9035 18.7594 45.0207 19.4629 44.669 20.0491C44.3172 20.6353 43.6138 20.7525 43.0276 20.4008C40.4483 18.5249 37.2828 17.587 34 17.587C30.7172 17.587 27.5517 18.5249 24.9724 20.2836C24.7379 20.518 24.5035 20.518 24.269 20.518Z" fill="#BF9B79"/>
<path d="M34 42.2081C28.7241 42.2081 19.931 37.5184 19.931 19.9322V16.415C19.931 15.7115 20.4 15.2425 21.1034 15.2425C21.8069 15.2425 22.2759 15.7115 22.2759 16.415V19.9322C22.2759 33.6494 28.3724 39.8632 34 39.8632C39.6276 39.8632 45.7241 33.6494 45.7241 19.9322C45.7241 18.7598 45.0207 16.5322 44.669 15.7115C42.6758 11.9598 40.0965 9.38047 34 9.38047C30.0138 9.38047 26.1448 11.4908 24.5034 14.6563C24.1517 15.2425 23.4483 15.477 22.8621 15.1253C22.2759 14.7736 22.0414 14.0701 22.3931 13.4839C24.5034 9.61495 29.0759 7.03564 34 7.03564C41.7379 7.03564 44.7862 10.9046 46.7793 14.6563V14.7736C46.8965 15.1253 48.069 18.0563 48.069 19.9322C48.069 37.5184 39.2759 42.2081 34 42.2081Z" fill="#BF9B79"/>
<path d="M28.1379 58.6207H27.9034C14.1862 55.3379 14.069 42.7931 14.069 42.2069C14.069 39.0414 14.4207 36.931 14.6552 34.8207C15.0069 32.8276 15.2414 30.9517 15.2414 28.1379C15.2414 9.73104 21.6897 0 34 0C39.2759 0 43.3793 1.52414 46.3103 4.45517C51.8207 9.96552 51.7034 19.2276 51.5862 25.4414V27.0828C51.5862 31.8897 52.2896 34.2345 52.8759 36.2276C53.3448 37.9862 53.931 39.6276 53.931 42.3241C53.931 43.0276 53.4621 43.4966 52.7586 43.4966C52.0552 43.4966 51.5862 43.0276 51.5862 42.3241C51.5862 39.9793 51.1172 38.5724 50.6483 36.931C49.9448 34.7034 49.2414 32.2414 49.2414 27.0828V25.4414C49.2414 19.6966 49.3586 11.0207 44.5517 6.21379C42.2069 3.63448 38.5724 2.34483 34 2.34483C23.0966 2.34483 17.5862 11.0207 17.5862 28.1379C17.5862 31.1862 17.2345 33.1793 17 35.1724C16.6483 37.2828 16.4138 39.1586 16.4138 42.2069C16.4138 42.6759 16.531 53.4621 28.3724 56.2759C28.9586 56.3931 29.4276 57.0966 29.1931 57.6828C29.1931 58.269 28.7241 58.6207 28.1379 58.6207Z" fill="#BF9B79"/>
<path d="M59.7931 53.9304C59.2069 53.9304 58.7379 53.4614 58.6207 52.8752C58.3862 50.7648 55.6896 46.8959 51.5862 46.8959C49.0069 46.8959 46.5448 48.42 43.8483 50.0614C40.8 51.9373 37.6345 53.9304 34 53.9304C21.4552 53.9304 18.7586 40.3304 18.7586 40.0959C18.6414 39.5097 19.1103 38.8062 19.6966 38.689C20.2828 38.5717 20.9862 39.0407 21.1035 39.6269C21.2207 40.2131 23.4483 51.5855 34 51.5855C36.931 51.5855 39.8621 49.8269 42.5586 48.0683C45.3724 46.3097 48.3034 44.5511 51.5862 44.5511C56.8621 44.5511 60.4965 49.3579 60.9655 52.6407C61.0827 53.2269 60.6138 53.9304 59.9103 53.9304H59.7931Z" fill="#BF9B79"/>
<path d="M66.8276 72.6891C66.1242 72.6891 65.6552 72.2201 65.6552 71.5167V69.1719C65.6552 66.3581 64.4828 60.965 56.1586 56.3925C49.9449 52.8753 46.0759 55.6891 41.269 59.3236C37.1655 62.2546 32.5931 65.6546 25.7931 65.6546C15.3587 65.6546 10.5518 60.027 10.5518 54.5167C10.5518 51.7029 11.7242 47.8339 11.7242 47.7167C11.9587 47.1305 12.5449 46.7788 13.1311 46.896C13.7173 47.1305 14.069 47.7167 13.9518 48.3029C13.9518 48.3029 12.8966 52.0546 12.8966 54.5167C12.8966 58.8546 16.8828 63.3098 25.7931 63.3098C31.8897 63.3098 35.9931 60.2615 39.8621 57.4477C44.9035 53.696 49.7104 50.1788 57.3311 54.3994C66.5931 59.5581 68 65.8891 68 69.1719V71.5167C68 72.2201 67.5311 72.6891 66.8276 72.6891Z" fill="#BF9B79"/>
<path d="M35.1724 72.6902C34.469 72.6902 34 72.2212 34 71.5177V65.6557C34 64.9522 34.469 64.4833 35.1724 64.4833C35.8759 64.4833 36.3448 64.9522 36.3448 65.6557V71.5177C36.3448 72.2212 35.8759 72.6902 35.1724 72.6902ZM51.5862 72.6902C50.8828 72.6902 50.4138 72.2212 50.4138 71.5177V57.4488C50.4138 56.7453 50.8828 56.2764 51.5862 56.2764C52.2896 56.2764 52.7586 56.7453 52.7586 57.4488V71.5177C52.7586 72.2212 52.2896 72.6902 51.5862 72.6902Z" fill="#BF9B79"/>
</svg>
